<?xml version="1.0" encoding="UTF-8"?>
<svg width="983px" height="170px" viewBox="0 0 983 170" version="1.1" xmlns="http://www.w3.org/2000/svg" xmlns:xlink="http://www.w3.org/1999/xlink">
    <title>trackzero_logo_cream@1x</title>
    <g id="trackzero_logo_cream" stroke="none" stroke-width="1" fill="none" fill-rule="evenodd">
        <g id="Track-Zero-Logo" transform="translate(0.5812, 0.2504)" fill="#F4F3F0" fill-rule="nonzero">
            <g id="track">
                <path d="M52.5821596,83.4741784 L52.5821596,125.101721 C52.5821596,130.213876 53.5680751,134.047992 55.5399061,136.604069 C57.5117371,139.160146 61.0537298,140.438185 66.1658842,140.438185 C67.9186228,140.438185 69.7809077,140.292123 71.7527387,140 C73.7245696,139.707877 75.3677621,139.269692 76.6823161,138.685446 L77.1205008,164.976526 C74.6374544,165.852895 71.4971309,166.619718 67.6995305,167.276995 C63.9019301,167.934272 60.1043297,168.262911 56.3067293,168.262911 C49.0036515,168.262911 42.8690662,167.350026 37.9029734,165.524257 C32.9368805,163.698487 28.9567032,161.069379 25.9624413,157.636933 C22.9681794,154.204486 20.8137715,150.114763 19.4992175,145.367762 C18.1846635,140.620762 17.5273865,135.32603 17.5273865,129.483568 L17.5273865,83.4741784 L0,83.4741784 L0,56.5258216 L17.3082942,56.5258216 L17.3082942,27.8247261 L52.5821596,27.8247261 L52.5821596,56.5258216 L78.2159624,56.5258216 L78.2159624,83.4741784 L52.5821596,83.4741784 Z" id="Path"></path>
                <path d="M165.852895,85.8841941 C164.246218,85.4460094 162.676056,85.1538863 161.14241,85.0078247 C159.608764,84.8617632 158.111633,84.7887324 156.651017,84.7887324 C151.830986,84.7887324 147.777778,85.6651017 144.491393,87.4178404 C141.205008,89.170579 138.5759,91.2884716 136.604069,93.771518 C134.632238,96.2545644 133.208138,98.9567032 132.331768,101.877934 C131.455399,104.799165 131.017214,107.355243 131.017214,109.546166 L131.017214,165.633803 L95.086072,165.633803 L95.086072,56.5258216 L129.70266,56.5258216 L129.70266,72.3004695 L130.140845,72.3004695 C132.916015,66.7501304 136.859677,62.2222222 141.971831,58.7167449 C147.083985,55.2112676 152.999478,53.458529 159.71831,53.458529 C161.178925,53.458529 162.603026,53.5315597 163.99061,53.6776213 C165.378195,53.8236828 166.510172,54.0427752 167.386541,54.3348983 L165.852895,85.8841941 Z" id="Path"></path>
                <path d="M242.754304,118.090767 L238.153365,118.090767 C234.209703,118.090767 230.229525,118.273344 226.212833,118.638498 C222.19614,119.003652 218.617632,119.697444 215.477308,120.719875 C212.336985,121.742306 209.744392,123.239437 207.699531,125.211268 C205.654669,127.183099 204.632238,129.775691 204.632238,132.989045 C204.632238,135.033907 205.106938,136.786646 206.056338,138.247261 C207.005738,139.707877 208.210746,140.876369 209.671362,141.752739 C211.131977,142.629108 212.811685,143.24987 214.710485,143.615023 C216.609285,143.980177 218.435055,144.162754 220.187793,144.162754 C227.490871,144.162754 233.077726,142.154408 236.948357,138.137715 C240.818988,134.121022 242.754304,128.68023 242.754304,121.815336 L242.754304,118.090767 Z M176.807512,71.4241002 C183.23422,65.2895149 190.719875,60.6885759 199.264476,57.6212833 C207.809077,54.5539906 216.536255,53.0203443 225.446009,53.0203443 C234.647887,53.0203443 242.425665,54.1523213 248.779343,56.4162754 C255.13302,58.6802295 260.28169,62.1857068 264.225352,66.9327074 C268.169014,71.6797079 271.05373,77.6682316 272.879499,84.8982786 C274.705269,92.1283255 275.618153,100.709442 275.618153,110.641628 L275.618153,165.633803 L242.754304,165.633803 L242.754304,154.021909 L242.097027,154.021909 C239.321857,158.549817 235.122587,162.055295 229.499218,164.538341 C223.875848,167.021388 217.777778,168.262911 211.205008,168.262911 C206.823161,168.262911 202.295253,167.678665 197.621283,166.510172 C192.947314,165.34168 188.675013,163.442879 184.804382,160.813772 C180.933751,158.184664 177.756912,154.679186 175.273865,150.29734 C172.790819,145.915493 171.549296,140.511215 171.549296,134.084507 C171.549296,126.197183 173.703704,119.843505 178.01252,115.023474 C182.321335,110.203443 187.871674,106.478873 194.663537,103.849765 C201.455399,101.220657 209.014085,99.4679186 217.339593,98.5915493 C225.665102,97.71518 233.771518,97.2769953 241.658842,97.2769953 L241.658842,95.5242567 C241.658842,90.1199791 239.760042,86.1398018 235.962441,83.5837246 C232.164841,81.0276474 227.490871,79.7496088 221.940532,79.7496088 C216.828378,79.7496088 211.8988,80.8450704 207.1518,83.0359937 C202.404799,85.2269171 198.351591,87.856025 194.992175,90.9233177 L176.807512,71.4241002 Z" id="Shape"></path>
                <path d="M377.496088,91.799687 C375.451226,89.170579 372.676056,87.0526865 369.170579,85.4460094 C365.665102,83.8393323 362.086594,83.0359937 358.435055,83.0359937 C354.637454,83.0359937 351.205008,83.8028169 348.137715,85.3364632 C345.070423,86.8701095 342.441315,88.9149713 340.250391,91.4710485 C338.059468,94.0271257 336.343245,96.9848722 335.101721,100.344288 C333.860198,103.703704 333.239437,107.282212 333.239437,111.079812 C333.239437,114.877413 333.823683,118.455921 334.992175,121.815336 C336.160668,125.174752 337.876891,128.132499 340.140845,130.688576 C342.404799,133.244653 345.106938,135.252999 348.247261,136.713615 C351.387585,138.174231 354.929577,138.904538 358.873239,138.904538 C362.524778,138.904538 366.139802,138.210746 369.71831,136.823161 C373.296818,135.435576 376.181534,133.42723 378.372457,130.798122 L398.309859,155.117371 C393.781951,159.499218 387.939489,162.931664 380.782473,165.41471 C373.625456,167.897757 366.030256,169.13928 357.99687,169.13928 C349.379238,169.13928 341.345853,167.824726 333.896714,165.195618 C326.447574,162.56651 319.984351,158.732394 314.507042,153.693271 C309.029734,148.654147 304.720918,142.556077 301.580595,135.399061 C298.440271,128.242045 296.87011,120.135629 296.87011,111.079812 C296.87011,102.170057 298.440271,94.1366719 301.580595,86.9796557 C304.720918,79.8226395 309.029734,73.7245696 314.507042,68.685446 C319.984351,63.6463224 326.447574,59.7756912 333.896714,57.0735524 C341.345853,54.3714137 349.306208,53.0203443 357.777778,53.0203443 C361.72144,53.0203443 365.628586,53.3854982 369.499218,54.1158059 C373.369849,54.8461137 377.094418,55.8320292 380.672926,57.0735524 C384.251435,58.3150756 387.53782,59.848722 390.532081,61.6744914 C393.526343,63.5002608 396.118936,65.5086072 398.309859,67.6995305 L377.496088,91.799687 Z" id="Path"></path>
                <polygon id="Path" points="529.765258 165.633803 485.289515 165.633803 449.577465 113.270736 448.920188 113.270736 448.920188 165.633803 412.769953 165.633803 412.769953 0 448.920188 0 448.920188 100.782473 449.577465 100.782473 484.413146 56.5258216 528.01252 56.5258216 485.946792 105.821596"></polygon>
            </g>
            <g id="zero" transform="translate(545.4188, 52.7496)">
                <path d="M376.394091,0 C384.662336,0 392.438473,1.3066677 399.71281,3.92249077 C407.004571,6.54457985 413.43354,10.339254 418.98667,15.3022695 C424.557392,20.2810079 428.954114,26.3563165 432.170319,33.5116447 C435.392728,40.6807752 437,48.7081208 437,57.5768409 C437,66.4436886 435.39343,74.5039967 432.173302,81.7411579 C428.958979,88.9652705 424.564884,95.1101011 418.997094,100.159397 C413.450212,105.189732 407.028743,109.089313 399.744683,111.854151 C392.461239,114.618754 384.673908,116 376.394091,116 C368.2561,116 360.506107,114.618923 353.155357,111.856398 C345.795365,109.090398 339.368343,105.187445 333.887586,100.150806 C328.394441,95.1027816 324.039114,88.9609829 320.826698,81.7411579 C317.60657,74.5039967 316,66.4436886 316,57.5768409 C316,48.7081208 317.607272,40.6807752 320.829681,33.5116447 C324.043958,26.3606043 328.401887,20.2882972 333.897962,15.3107801 C339.38495,10.3414922 345.819439,6.54355965 353.187027,3.92043504 C360.528756,1.30651681 368.267663,0 376.394091,0 Z M169.015831,0 C177.037393,0 184.426128,1.34947106 191.169335,4.05357519 C197.934445,6.7664633 203.756788,10.6980475 208.618768,15.8397904 C213.470443,20.9706354 217.248928,27.1889466 219.954018,34.4788712 C222.654728,41.7569941 224,50.0228193 224,59.2694773 L224,63.5010683 C224,64.981218 223.925517,66.3923006 223.775954,67.7344829 L223.58451,69.4524988 L147.504834,69.4518973 L147.573436,69.7617317 C147.941963,71.3246626 148.51968,72.7825802 149.307032,74.1411602 L149.549527,74.5457598 C150.908109,76.739012 152.655164,78.6423153 154.800507,80.262878 C156.968108,81.9002545 159.401455,83.178988 162.108284,84.1005997 C164.806132,85.0191539 167.600901,85.4781385 170.501181,85.4781385 C175.716009,85.4781385 180.071952,84.5239167 183.590327,82.6398794 C187.162151,80.727221 190.054195,78.2695346 192.28582,75.2590026 L193.355095,73.8165168 L194.875785,74.7741767 L219.065762,90.0079043 L220.767357,91.0794905 L219.628324,92.734428 C214.483393,100.209662 207.677473,105.968804 199.239452,109.992717 C190.831862,114.002118 181.104942,116 170.076795,116 C161.940264,116 154.226668,114.730209 146.945118,112.189032 C139.635405,109.638026 133.225013,105.912481 127.728108,101.016104 C122.212925,96.1034457 117.876669,90.0575605 114.725448,82.8964618 C111.571454,75.7290633 110,67.5665432 110,58.4231591 C110,49.5674619 111.534199,41.5179827 114.609947,34.2889587 C117.681335,27.0701799 121.861802,20.9272965 127.147876,15.876115 C132.427347,10.8312444 138.657403,6.92130592 145.823816,4.15052332 C152.983382,1.38238813 160.718006,0 169.015831,0 Z M95.8799227,4 L95.8799227,32.6795067 L95.3324577,33.2405544 L47.4296319,82.3304138 L98,82.3311196 L98,113 L5.68434189e-14,113 L5.68434189e-14,83.2722207 L0.538590995,82.7129246 L47.0069907,34.4576382 L1.90806953,34.4577453 L1.90806953,4 L95.8799227,4 Z M305.563719,1 C307.045947,1 308.493474,1.07385588 309.906113,1.22180111 C311.379322,1.37608966 312.608204,1.61273224 313.606224,1.94371938 L315,2.40595673 L314.928632,3.86666215 L313.442572,34.282094 L313.32541,36.6800499 L310.998583,36.048677 C309.546471,35.6546538 308.133808,35.393165 306.760094,35.2629981 C305.334249,35.1278917 303.944772,35.0604558 302.591598,35.0604558 C298.22072,35.0604558 294.6034,35.8386148 291.720364,37.3684404 C288.761299,38.9386095 286.421335,40.8140267 284.68316,42.9917445 C282.924012,45.1957407 281.659807,47.5823293 280.882061,50.1616759 C280.083476,52.8101359 279.690065,55.0934032 279.690065,57 L279.690065,113 L241,113 L241,3.95705588 L278.416299,3.95705588 L278.415581,14.9189284 L278.776193,14.4382801 C281.006146,11.5063759 283.667027,8.94753246 286.7544,6.76685283 L287.27291,6.40690862 C292.556083,2.80252356 298.670592,1 305.563719,1 Z M376.394344,4 C368.723404,4 361.44068,5.2293153 354.536537,7.68706352 C347.658191,10.1356287 341.680345,13.663493 336.588631,18.2741003 C331.505983,22.8764992 327.471463,28.4973168 324.479579,35.1525692 C321.495808,41.7897773 320,49.2592925 320,57.577913 C320,65.8984012 321.496509,73.4053852 324.482555,80.1154306 C327.476296,86.8427683 331.513411,92.5349661 336.598982,97.2077322 C341.696913,101.891855 347.682207,105.526007 354.568131,108.113451 C361.463276,110.70436 368.734941,112 376.394344,112 C384.19401,112 391.498863,110.704529 398.320278,108.115692 C405.141078,105.52709 411.131912,101.889574 416.30475,97.1991627 C421.45673,92.5276651 425.525607,86.8384916 428.517445,80.1154306 C431.503491,73.4053852 433,65.8984012 433,57.577913 C433,49.2592925 431.504192,41.7897773 428.520421,35.1525692 C425.53046,28.5015938 421.464204,22.88377 416.315149,18.2825894 C411.148545,13.6657255 405.165192,10.1346111 398.352075,7.68501299 C391.521575,5.22916479 384.205555,4 376.394344,4 Z M169.010973,4 C161.201017,4 153.958183,5.29433186 147.270645,7.87964517 C140.589938,10.4623178 134.809702,14.0895034 129.915744,18.7654152 C125.028373,23.435032 121.154873,29.1261479 118.291781,35.854529 C115.433038,42.5726911 114,50.0904766 114,58.422087 C114,67.029522 115.466433,74.6455965 118.388239,81.2845323 C121.312811,87.9297518 125.31314,93.5065765 130.395317,98.0329747 C135.495727,102.575612 141.448864,106.034985 148.268859,108.41479 C155.116949,110.804399 162.38076,112 170.069379,112 C180.518189,112 189.654353,110.12369 197.49593,106.384671 C204.673807,102.962117 210.545335,98.2091801 215.132874,92.1110468 L215.144671,92.0932728 L194.214131,78.9139112 L193.920495,79.2577374 C191.703382,81.7970656 189.027509,83.9408417 185.902137,85.6853279 L185.377081,85.9723779 C181.266448,88.1732882 176.297913,89.2615711 170.492742,89.2615711 C167.176712,89.2615711 163.967107,88.7345232 160.872496,87.6810108 C157.786844,86.6305483 154.992853,85.1624766 152.498241,83.2783131 C149.981423,81.3773784 147.914003,79.1253374 146.305772,76.5293804 C144.665889,73.8823316 143.690047,70.9247108 143.380065,67.6797069 L143.178574,65.5704316 L219.941072,65.5698316 L219.949961,65.4395278 C219.972184,65.0176383 219.987016,64.5877614 219.994435,64.1499032 L220,63.4871308 L220,59.266261 C220,50.4804469 218.731293,42.6860244 216.204021,35.8761413 C213.681117,29.0780299 210.182769,23.3214551 205.708771,18.5906043 C201.245054,13.8706237 195.904813,10.2650289 189.670496,7.76530419 C183.414327,5.25681771 176.532044,4 169.010973,4 Z M305.590955,5 C299.473405,5 294.132786,6.57262791 289.516467,9.71854397 C284.84165,12.9043256 281.245521,17.0077023 278.707573,22.0522348 L278.173003,23.1147692 L274.620564,23.1147692 L274.619847,7.94845703 L245,7.94845703 L245,109 L275.892239,109 L275.892242,57.0002204 C275.892242,54.8332936 276.292162,52.3794135 277.082323,49.6291485 L277.245556,49.075141 C278.164656,46.0304046 279.657827,43.2147146 281.716597,40.6382085 C283.796307,38.0354963 286.546892,35.8334385 289.951069,34.0290958 C293.431151,32.1845206 297.661777,31.2754427 302.623705,31.2754427 C304.098701,31.2754427 305.608102,31.3486171 307.151844,31.4947316 C307.949738,31.5702519 308.755572,31.6832444 309.569285,31.8335579 L309.70537,31.8596049 L311,5.40553612 L310.857064,5.3796829 C310.553699,5.32816994 310.227295,5.28147325 309.878214,5.2399157 L309.521587,5.20008315 C308.247257,5.06677199 306.937108,5 305.590955,5 Z M91.8861876,7 L5.90165972,7 L5.90165972,29.9079804 L56.0604434,29.9080882 L52.9285434,33.1927168 L4,84.5073068 L4,109 L94,109 L94,85.8794954 L38.3046053,85.8802061 L41.4870758,82.5863589 L91.8861876,30.4223085 L91.8861876,7 Z M376.787608,29 C381.182822,29 385.089374,29.8389745 388.485813,31.5299077 C391.828144,33.1939031 394.654074,35.3612939 396.949014,38.027236 C399.232928,40.68037 400.981909,43.7468837 402.193207,47.2144241 C403.396966,50.6603838 404,54.1880054 404,57.7885196 C404,61.3759883 403.436638,64.8912456 402.311492,68.3268873 C401.176252,71.7933528 399.469277,74.9282662 397.195329,77.7207683 C394.895997,80.5444439 392.058206,82.7972996 388.698204,84.4700923 C385.301766,86.1610255 381.395214,87 377,87 C372.604786,87 368.698234,86.1610255 365.301796,84.4700923 C361.941794,82.7972996 359.104003,80.5444439 356.804671,77.7207683 C354.530723,74.9282662 352.823748,71.7933528 351.688508,68.3268873 C350.563362,64.8912456 350,61.3759883 350,57.7885196 C350,54.201051 350.563362,50.6857937 351.688508,47.250152 C352.825012,43.7798262 354.500043,40.7094766 356.71153,38.0518922 C358.940071,35.3738135 361.738295,33.1982729 365.089404,31.5299077 C368.485843,29.8389745 372.392395,29 376.787608,29 Z M376.788751,33 C372.992028,33 369.6951,33.707946 366.876632,35.1109259 C364.013077,36.5363488 361.655857,38.368749 359.788263,40.6127379 C357.903707,42.8771078 356.471409,45.5021357 355.48931,48.5005399 C354.495913,51.5334364 354,54.6273649 354,57.7896887 C354,60.9520126 354.495913,64.0459411 355.48931,67.0788376 C356.472666,70.0810806 357.943608,72.7821092 359.906872,75.1927223 C361.844889,77.5723343 364.233171,79.4680542 367.087881,80.8890741 C369.906349,82.292054 373.203277,83 377,83 C380.796723,83 384.093651,82.292054 386.912119,80.8890741 C389.766829,79.4680542 392.155111,77.5723343 394.093128,75.1927223 C396.056392,72.7821092 397.527334,70.0810806 398.51069,67.0788376 C399.504087,64.0459411 400,60.9520126 400,57.7896887 C400,54.6403384 399.473128,51.5587058 398.41709,48.5360703 C397.36855,45.5348961 395.868971,42.9060535 393.91562,40.6372578 C391.973235,38.3811994 389.573156,36.5406945 386.700871,35.1109259 C383.882402,33.707946 380.585475,33 376.788751,33 Z M169.152216,24 C176.643424,24 182.407034,26.1814849 186.292726,30.5936038 C190.09107,34.906542 192,40.0931757 192,46.0655903 L192,48 L143,48 L143.107861,45.9638653 C143.264649,43.0041339 144.049126,40.159278 145.453644,37.4459033 C146.847248,34.7536132 148.708555,32.4034753 151.028706,30.4056601 C153.339573,28.4158392 156.028565,26.8510266 159.084771,25.7123489 C162.153823,24.5688851 165.512971,24 169.152216,24 Z M169.494441,28 C166.370936,28 163.530443,28.4827409 160.963158,29.442621 C158.383279,30.4072099 156.140407,31.7170007 154.223844,33.3731018 C152.316383,35.0213375 150.795498,36.9484033 149.652506,39.1643058 C148.897644,40.6277443 148.368271,42.1263514 148.062164,43.664968 L148,44 L188,44 L187.96626,43.6309173 C187.573875,39.7867225 186.160304,36.4325652 183.715284,33.5220504 L183.428588,33.188188 C180.4073,29.7455149 175.811711,28 169.494441,28 Z" id="Shape"></path>
            </g>
        </g>
    </g>
</svg>